<?xml version="1.0" encoding="utf-8"?>
<!-- Generator: Adobe Illustrator 16.0.0, SVG Export Plug-In . SVG Version: 6.00 Build 0)  -->
<!DOCTYPE svg PUBLIC "-//W3C//DTD SVG 1.1//EN" "http://www.w3.org/Graphics/SVG/1.1/DTD/svg11.dtd">
<svg version="1.1" id="图层_1" xmlns="http://www.w3.org/2000/svg" xmlns:xlink="http://www.w3.org/1999/xlink" x="0px" y="0px"
	 width="211.683px" height="242.35px" viewBox="0 0 211.683 242.35" enable-background="new 0 0 211.683 242.35"
	 xml:space="preserve">
<path d="M10.631,0.452l2.59,1.496C12.468,1.296,11.592,0.787,10.631,0.452z"/>
<path fill="#FFFFFF" d="M208.217,114.527l-1.037-0.599L13.222,1.948l-2.59-1.496C9.806,0.164,8.923,0,8,0C3.581,0,0,3.582,0,8
	v226.35c0,4.418,3.581,8,8,8c0.753,0,1.479-0.111,2.169-0.306c1.304-0.367,2.474-1.052,3.416-1.973l193.595-111.77l1.037-0.6
	c2.093-1.442,3.466-3.854,3.466-6.588S210.31,115.969,208.217,114.527z"/>
</svg>
